<?xml version="1.0" encoding="UTF-8"?>
<svg id="Capa_2" data-name="Capa 2" xmlns="http://www.w3.org/2000/svg" viewBox="0 0 733.69 1700">
  <defs>
    <style>
      .cls-1 {
        fill: #fff;
      }
    </style>
  </defs>
  <g id="Capa_1-2" data-name="Capa 1">
    <g>
      <path class="cls-1" d="M83.29,1473.79c0-22.23-14.39-36.62-35.89-36.62H.18v101.72h18.16v-29.07h24.99l19.04,29.07h21.51l-20.92-31.97c12.64-5.23,20.34-17.29,20.34-33.13ZM45.65,1493.11h-27.31v-39.23h27.31c11.77,0,19.47,7.7,19.47,19.47s-7.7,19.76-19.47,19.76Z"/>
      <path class="cls-1" d="M159.11,1516.36h-19.04c-3.49,5.09-9.15,7.85-16.42,7.85-10.31,0-17.58-5.81-19.47-15.84h56.82c.15-1.89.29-3.78.29-5.81,0-22.38-14.96-37.35-37.49-37.35s-37.63,14.97-37.63,37.35,15.11,37.63,37.63,37.63c17.58,0,30.51-9.15,35.31-23.83ZM123.65,1481.2c8.72,0,15.26,4.07,18.31,11.19h-36.47c3.05-7.12,9.59-11.19,18.16-11.19Z"/>
      <path class="cls-1" d="M234.79,1538.88v-43.3c0-12.65-9.44-30.66-33.42-30.66s-33.42,18.01-33.42,30.66v43.3h17.44v-42.87c0-10.32,7.55-14.97,15.98-14.97s15.99,4.65,15.99,14.97v42.87h17.44Z"/>
      <path class="cls-1" d="M279.37,1539.9v-15.98c-13.65,0-19.04-5.38-19.04-18.6v-23.1h16.57v-15.98h-16.57v-29.06h-17.44v68.29c0,22.38,12.65,34.44,36.47,34.44Z"/>
      <path class="cls-1" d="M339.37,1531.91v6.97h17.44v-36.04c0-22.52-15.12-37.63-37.63-37.63s-37.49,14.97-37.49,37.35,15.11,37.63,36.18,37.63c10.61,0,18.02-3.78,21.5-8.28ZM319.32,1524.2c-12.2,0-20.2-7.99-20.2-21.5s8-21.5,20.2-21.5,20.05,7.99,20.05,21.5-7.99,21.5-20.05,21.5Z"/>
      <path class="cls-1" d="M450.93,1451.99c11.48,0,20.2,4.35,26.3,11.91l14.82-10.17c-9.3-11.62-23.1-18.46-41.12-18.46-31.68,0-51.29,21.07-51.29,52.74s19.62,52.75,51.29,52.75c18.02,0,31.82-6.83,41.12-18.46l-14.82-10.17c-6.1,7.56-14.82,11.92-26.3,11.92-20.92,0-33.13-13.95-33.13-36.04s12.2-36.03,33.13-36.03Z"/>
      <path class="cls-1" d="M495.07,1502.56c0,22.52,15.11,37.63,37.63,37.63s37.49-15.11,37.49-37.63-14.96-37.35-37.49-37.35-37.63,14.97-37.63,37.35ZM552.75,1502.7c0,13.51-7.99,21.5-20.2,21.5s-20.05-7.99-20.05-21.5,7.99-21.5,20.05-21.5,20.2,7.99,20.2,21.5Z"/>
      <path class="cls-1" d="M576.85,1538.88h17.44v-40.69c0-11.62,6.97-17.29,18.6-17.29v-15.98c-22.09,0-36.04,11.19-36.04,33.27v40.69Z"/>
      <path class="cls-1" d="M619.7,1437.17v68.29c0,22.38,12.64,34.44,36.47,34.44v-15.98c-13.66,0-19.04-5.38-19.04-18.6v-23.1h16.57v-15.98h-16.57v-29.06h-17.44Z"/>
      <path class="cls-1" d="M733.6,1538.88v-36.04c0-22.52-15.12-37.63-37.63-37.63s-37.49,14.97-37.49,37.35,15.11,37.63,36.18,37.63c10.61,0,18.02-3.78,21.5-8.28v6.97h17.44ZM696.11,1524.2c-12.2,0-20.2-7.99-20.2-21.5s8-21.5,20.2-21.5,20.05,7.99,20.05,21.5-7.99,21.5-20.05,21.5Z"/>
      <path class="cls-1" d="M33.49,1645.45l-16.32-47.06H.16l23.4,66.24c3.27,9.11-4.08,20.4-13.19,20.4v14.96c22.85,0,26.8-17.68,32.37-33.6l24.08-68.01h-17l-16.32,47.06Z"/>
      <polygon class="cls-1" points="160.41 1571.18 139.46 1639.06 118.38 1571.18 100.83 1571.18 130.89 1666.4 147.89 1666.4 177.96 1571.18 160.41 1571.18"/>
      <path class="cls-1" d="M205.58,1597.44c-20.95,0-35.09,14.01-35.09,34.96s14.15,35.23,33.87,35.23c9.93,0,16.87-3.54,20.13-7.75v6.53h16.32v-33.73c0-21.08-14.15-35.23-35.23-35.23ZM205.71,1652.66c-11.42,0-18.91-7.48-18.91-20.13s7.48-20.13,18.91-20.13,18.77,7.48,18.77,20.13-7.48,20.13-18.77,20.13Z"/>
      <path class="cls-1" d="M282.03,1652.66c-11.29,0-18.77-7.48-18.77-20.13s7.48-20.13,18.77-20.13c8.16,0,14.28,3.81,17.14,10.47h17c-3.54-15.51-16.32-25.44-34.01-25.44-21.08,0-35.23,14.01-35.23,34.96s14.15,35.23,35.23,35.23c17.82,0,30.47-10.07,34.14-25.84h-17c-2.86,6.94-8.98,10.88-17.28,10.88Z"/>
      <path class="cls-1" d="M354.82,1597.44c-20.95,0-35.09,14.01-35.09,34.96s14.15,35.23,33.87,35.23c9.93,0,16.87-3.54,20.13-7.75v6.53h16.32v-33.73c0-21.08-14.15-35.23-35.23-35.23ZM354.95,1652.66c-11.43,0-18.91-7.48-18.91-20.13s7.48-20.13,18.91-20.13,18.77,7.48,18.77,20.13-7.48,20.13-18.77,20.13Z"/>
      <path class="cls-1" d="M431.27,1652.66c-11.29,0-18.77-7.48-18.77-20.13s7.48-20.13,18.77-20.13c8.16,0,14.28,3.81,17.14,10.47h17c-3.54-15.51-16.32-25.44-34.01-25.44-21.08,0-35.23,14.01-35.23,34.96s14.15,35.23,35.23,35.23c17.82,0,30.47-10.07,34.14-25.84h-17c-2.86,6.94-8.98,10.88-17.28,10.88Z"/>
      <path class="cls-1" d="M479.84,1569.69c-5.03,0-8.98,4.08-8.98,8.98,0,5.17,3.94,9.11,8.98,9.11s8.98-3.95,8.98-9.11c0-4.9-3.95-8.98-8.98-8.98Z"/>
      <rect class="cls-1" x="471.68" y="1598.39" width="16.32" height="68.01"/>
      <path class="cls-1" d="M528.81,1597.44c-21.08,0-35.23,14.01-35.23,34.96s14.15,35.23,35.23,35.23,35.1-14.15,35.1-35.23-14.01-34.96-35.1-34.96ZM528.68,1652.66c-11.29,0-18.77-7.48-18.77-20.13s7.48-20.13,18.77-20.13,18.91,7.48,18.91,20.13-7.48,20.13-18.91,20.13Z"/>
      <path class="cls-1" d="M601.46,1597.16c-22.44,0-31.29,16.87-31.29,28.7v40.54h16.32v-40.13c0-9.66,7.07-14.01,14.96-14.01s14.96,4.35,14.96,14.01v40.13h16.32v-40.54c0-11.83-8.84-28.7-31.29-28.7Z"/>
      <path class="cls-1" d="M673.97,1597.44c-20.95,0-35.09,14.01-35.09,34.96s14.15,35.23,33.87,35.23c9.93,0,16.87-3.54,20.13-7.75v6.53h16.32v-33.73c0-21.08-14.15-35.23-35.23-35.23ZM674.1,1652.66c-11.43,0-18.91-7.48-18.91-20.13s7.48-20.13,18.91-20.13,18.77,7.48,18.77,20.13-7.48,20.13-18.77,20.13Z"/>
      <rect class="cls-1" x="717.37" y="1571.18" width="16.32" height="95.22"/>
      <path class="cls-1" d="M42.81,999.01c23.65,0,42.81-19.16,42.81-42.81v-412.9l237.85-182.46v596.27c0,23.65,19.16,42.81,42.81,42.81h323.47c23.65,0,42.81-19.16,42.81-42.81v-434.93c0-13.31-6.19-25.87-16.75-33.96l-323.16-247.9c-7.14-5.59-16.12-8.97-25.89-9.08h-.96c-9.77.11-18.75,3.49-25.89,9.08L16.75,488.23c-10.56,8.1-16.75,20.65-16.75,33.96v434.01c0,23.65,19.16,42.81,42.81,42.81ZM409.09,360.85l237.85,182.46v371.01h-237.85V360.85Z"/>
      <polygon class="cls-1" points="168.16 1138.22 168.16 1097.75 .64 1097.75 .64 1344.09 168.16 1344.44 168.16 1303.97 44.63 1303.97 44.63 1234.64 146.33 1234.64 146.33 1194.17 44.63 1194.17 44.63 1138.22 168.16 1138.22"/>
      <polygon class="cls-1" points="296.23 1168.13 261.75 1220.21 227.26 1168.13 178.7 1168.13 236.76 1256.11 178.7 1344.09 227.26 1344.09 261.75 1292 296.23 1344.09 344.8 1344.09 286.73 1256.11 344.8 1168.13 296.23 1168.13"/>
      <path class="cls-1" d="M447.91,1346.91c51.38,0,87.98-36.6,87.98-91.15s-36.6-90.44-90.09-90.44-91.85,33.79-91.85,90.44v158.71h42.23v-87.63c8.45,10.91,26.39,20.07,51.73,20.07ZM444.74,1204.02c29.56,0,48.92,19.35,48.92,52.09s-19.35,52.08-48.92,52.08-48.56-19.35-48.56-52.08,19.35-52.09,48.56-52.09Z"/>
      <path class="cls-1" d="M732.23,1256.11c0-54.19-36.24-90.44-90.79-90.44s-91.14,36.25-91.14,90.44,36.6,91.15,91.14,91.15,90.79-36.6,90.79-91.15ZM641.09,1308.54c-29.21,0-48.56-19.35-48.56-52.08s19.35-52.09,48.56-52.09,48.92,19.35,48.92,52.09-19.35,52.08-48.92,52.08Z"/>
      <path class="cls-1" d="M43.02,334.12c9.09,0,18.28-2.89,26.05-8.86L366.5,96.77l296.8,227.67c18.76,14.4,45.64,10.85,60.02-7.9,14.4-18.76,10.85-45.63-7.9-60.02L392.38,8.71c-10.76-8.25-24.85-10.75-37.91-7.02-5.98,1.72-11.43,4.71-16.04,8.68L16.91,257.36c-18.75,14.41-22.27,41.28-7.87,60.03,8.43,10.98,21.13,16.73,33.98,16.73Z"/>
    </g>
  </g>
</svg>