<?xml version="1.0" encoding="UTF-8"?>
<svg id="Capa_2" data-name="Capa 2" xmlns="http://www.w3.org/2000/svg" viewBox="0 0 1700 806.52">
  <defs>
    <style>
      .cls-1 {
        fill: #4ead80;
      }

      .cls-2 {
        fill: #2947f0;
      }
    </style>
  </defs>
  <g id="Capa_1-2" data-name="Capa 1">
    <g>
      <path class="cls-2" d="M525.48,761.79h-246.43c-18.01,0-32.61-14.6-32.61-32.61v-454.26l-181.21,139v314.56c0,18.01-14.6,32.61-32.61,32.61S0,746.49,0,728.47v-330.65c0-10.14,4.72-19.71,12.76-25.87l246.19-188.86c5.44-4.26,12.28-6.83,19.72-6.92h.73c7.44.09,14.28,2.66,19.72,6.92l246.19,188.86c8.05,6.17,12.76,15.73,12.76,25.87v331.35c0,18.01-14.6,32.61-32.61,32.61ZM311.66,696.56h181.21v-282.65l-181.21-139v421.65Z"/>
      <g>
        <path class="cls-1" d="M711.3,443.57h63.65c28.98,0,48.37,19.39,48.37,49.36,0,21.35-10.38,37.6-27.42,44.65l28.2,43.09h-28.99l-25.66-39.18h-33.68v39.18h-24.48v-137.1ZM772.59,518.96c15.87,0,26.25-10.37,26.25-26.63s-10.38-26.25-26.25-26.25h-36.82v52.87h36.82Z"/>
        <path class="cls-1" d="M899.87,550.3h25.66c-6.47,19.79-23.9,32.12-47.59,32.12-30.36,0-50.73-20.37-50.73-50.72s20.37-50.35,50.73-50.35,50.53,20.18,50.53,50.35c0,2.74-.19,5.28-.39,7.83h-76.58c2.55,13.52,12.34,21.35,26.25,21.35,9.8,0,17.43-3.72,22.13-10.58ZM902.41,517.99c-4.11-9.6-12.92-15.08-24.68-15.08s-20.37,5.48-24.48,15.08h49.16Z"/>
        <path class="cls-1" d="M1027.53,522.3v58.36h-23.5v-57.78c0-13.91-10.18-20.18-21.55-20.18s-21.54,6.27-21.54,20.18v57.78h-23.5v-58.36c0-17.04,12.73-41.33,45.04-41.33s45.05,24.28,45.05,41.33Z"/>
        <path class="cls-1" d="M1087.62,582.03c-32.12,0-49.16-16.26-49.16-46.42v-92.05h23.5v39.17h22.33v21.55h-22.33v31.14c0,17.82,7.25,25.07,25.66,25.07v21.55Z"/>
        <path class="cls-1" d="M1192,532.09v48.58h-23.51v-9.4c-4.69,6.07-14.68,11.16-28.98,11.16-28.4,0-48.77-20.37-48.77-50.72s20.37-50.35,50.54-50.35,50.73,20.38,50.73,50.73ZM1141.47,502.91c-16.45,0-27.22,10.77-27.22,28.98s10.78,28.98,27.22,28.98,27.03-10.77,27.03-28.98-10.77-28.98-27.03-28.98Z"/>
        <path class="cls-1" d="M1318.86,441.02c24.29,0,42.89,9.21,55.43,24.88l-19.98,13.7c-8.22-10.19-19.98-16.06-35.45-16.06-28.2,0-44.65,18.8-44.65,48.56s16.45,48.58,44.65,48.58c15.47,0,27.22-5.88,35.45-16.07l19.98,13.71c-12.53,15.67-31.14,24.88-55.43,24.88-42.69,0-69.14-28.4-69.14-71.1s26.45-71.09,69.14-71.09Z"/>
        <path class="cls-1" d="M1429.09,481.36c30.36,0,50.53,20.18,50.53,50.35s-20.17,50.72-50.53,50.72-50.73-20.37-50.73-50.72,20.37-50.35,50.73-50.35ZM1428.89,560.88c16.46,0,27.22-10.77,27.22-28.98s-10.77-28.98-27.22-28.98-27.03,10.77-27.03,28.98,10.77,28.98,27.03,28.98Z"/>
        <path class="cls-1" d="M1537.17,480.98v21.54c-15.67,0-25.07,7.64-25.07,23.3v54.85h-23.5v-54.85c0-29.76,18.8-44.84,48.57-44.84Z"/>
        <path class="cls-1" d="M1595.51,582.03c-32.12,0-49.16-16.26-49.16-46.42v-92.05h23.5v39.17h22.33v21.55h-22.33v31.14c0,17.82,7.25,25.07,25.66,25.07v21.55Z"/>
        <path class="cls-1" d="M1699.88,532.09v48.58h-23.51v-9.4c-4.69,6.07-14.68,11.16-28.98,11.16-28.4,0-48.77-20.37-48.77-50.72s20.37-50.35,50.54-50.35,50.73,20.38,50.73,50.73ZM1649.34,502.91c-16.45,0-27.22,10.77-27.22,28.98s10.78,28.98,27.22,28.98,27.03-10.77,27.03-28.98-10.77-28.98-27.03-28.98Z"/>
      </g>
      <g>
        <path class="cls-2" d="M711.28.21h226.15v54.63h-166.76v75.53h137.3v54.64h-137.3v93.6h166.76v54.63l-226.15-.47V.21Z"/>
        <path class="cls-2" d="M951.66,95.22h65.56l46.56,70.32,46.56-70.32h65.57l-78.4,118.78,78.4,118.78h-65.57l-46.56-70.32-46.56,70.32h-65.56l78.39-118.78-78.39-118.78Z"/>
        <path class="cls-2" d="M1188.25,427.79v-214.27c0-76.49,54.63-122.1,123.99-122.1s121.62,48.94,121.62,122.1-49.41,123.06-118.77,123.06c-34.21,0-58.43-12.36-69.84-27.09v118.3h-57.01ZM1310.82,143.68c-39.43,0-65.56,26.13-65.56,70.32s26.13,70.31,65.56,70.31,66.04-26.13,66.04-70.31-26.13-70.32-66.04-70.32Z"/>
        <path class="cls-2" d="M1576.38,91.89c73.64,0,122.57,48.94,122.57,122.1s-48.93,123.05-122.57,123.05-123.05-49.41-123.05-123.05,49.41-122.1,123.05-122.1ZM1575.9,284.78c39.91,0,66.04-26.13,66.04-70.31s-26.13-70.32-66.04-70.32-65.56,26.13-65.56,70.32,26.13,70.31,65.56,70.31Z"/>
      </g>
      <path class="cls-1" d="M32.78,254.54c-9.79,0-19.47-4.38-25.89-12.74-10.97-14.28-8.29-34.76,6-45.73L257.83,7.9c3.52-3.02,7.67-5.3,12.22-6.61,9.95-2.84,20.68-.94,28.88,5.35l246.1,188.79c14.29,10.96,16.99,31.43,6.02,45.72-10.95,14.29-31.43,16.99-45.72,6.02l-226.11-173.45L52.62,247.8c-5.92,4.54-12.92,6.75-19.84,6.75Z"/>
      <g>
        <path class="cls-1" d="M711.28,669.56h22.92l22,63.44,22-63.44h22.92l-32.45,91.67c-7.52,21.45-12.83,45.29-43.63,45.29v-20.17c12.28,0,22.18-15.22,17.78-27.5l-31.53-89.29Z"/>
        <path class="cls-1" d="M887.49,761.23l-40.52-128.34h23.65l28.42,91.49,28.24-91.49h23.65l-40.52,128.34h-22.92Z"/>
        <path class="cls-1" d="M1035.65,715.76v45.47h-22v-8.8c-4.4,5.68-13.75,10.45-27.14,10.45-26.59,0-45.65-19.07-45.65-47.49s19.07-47.12,47.3-47.12,47.49,19.07,47.49,47.49ZM988.34,688.44c-15.4,0-25.48,10.08-25.48,27.13s10.08,27.14,25.48,27.14,25.3-10.08,25.3-27.14-10.08-27.13-25.3-27.13Z"/>
        <path class="cls-1" d="M1091.21,742.71c11.18,0,19.44-5.32,23.29-14.67h22.92c-4.95,21.27-22,34.84-46.02,34.84-28.42,0-47.48-19.07-47.48-47.49s19.07-47.12,47.48-47.12c23.84,0,41.07,13.39,45.84,34.29h-22.92c-3.85-8.98-12.1-14.12-23.1-14.12-15.22,0-25.3,10.08-25.3,27.13s10.08,27.14,25.3,27.14Z"/>
        <path class="cls-1" d="M1236.8,715.76v45.47h-22v-8.8c-4.4,5.68-13.75,10.45-27.14,10.45-26.59,0-45.65-19.07-45.65-47.49s19.07-47.12,47.3-47.12,47.49,19.07,47.49,47.49ZM1189.5,688.44c-15.4,0-25.48,10.08-25.48,27.13s10.08,27.14,25.48,27.14,25.3-10.08,25.3-27.14-10.08-27.13-25.3-27.13Z"/>
        <path class="cls-1" d="M1292.37,742.71c11.18,0,19.44-5.32,23.29-14.67h22.92c-4.95,21.27-22,34.84-46.02,34.84-28.42,0-47.48-19.07-47.48-47.49s19.07-47.12,47.48-47.12c23.84,0,41.07,13.39,45.84,34.29h-22.92c-3.85-8.98-12.1-14.12-23.1-14.12-15.22,0-25.3,10.08-25.3,27.13s10.08,27.14,25.3,27.14Z"/>
        <path class="cls-1" d="M1357.84,630.87c6.78,0,12.1,5.5,12.1,12.1,0,6.97-5.32,12.28-12.1,12.28s-12.1-5.32-12.1-12.28c0-6.6,5.31-12.1,12.1-12.1ZM1346.84,669.56h22v91.67h-22v-91.67Z"/>
        <path class="cls-1" d="M1423.84,668.27c28.42,0,47.31,18.89,47.31,47.12s-18.88,47.49-47.31,47.49-47.48-19.07-47.48-47.49,19.07-47.12,47.48-47.12ZM1423.66,742.71c15.4,0,25.49-10.08,25.49-27.14s-10.08-27.13-25.49-27.13-25.3,10.08-25.3,27.13,10.08,27.14,25.3,27.14Z"/>
        <path class="cls-1" d="M1563.93,706.59v54.64h-22v-54.09c0-13.02-9.53-18.89-20.17-18.89s-20.17,5.87-20.17,18.89v54.09h-22v-54.64c0-15.95,11.92-38.69,42.17-38.69s42.17,22.74,42.17,38.69Z"/>
        <path class="cls-1" d="M1666.99,715.76v45.47h-22v-8.8c-4.4,5.68-13.75,10.45-27.14,10.45-26.59,0-45.65-19.07-45.65-47.49s19.07-47.12,47.3-47.12,47.49,19.07,47.49,47.49ZM1619.68,688.44c-15.4,0-25.48,10.08-25.48,27.13s10.08,27.14,25.48,27.14,25.3-10.08,25.3-27.14-10.08-27.13-25.3-27.13Z"/>
        <path class="cls-1" d="M1678,632.89h22v128.34h-22v-128.34Z"/>
      </g>
    </g>
  </g>
</svg>