<?xml version="1.0" encoding="UTF-8"?>
<svg id="Capa_2" data-name="Capa 2" xmlns="http://www.w3.org/2000/svg" viewBox="0 0 1700 806.52">
  <g id="Capa_1-2" data-name="Capa 1">
    <g>
      <path d="M545.33,371.95l-246.19-188.86c-5.44-4.26-12.28-6.83-19.72-6.92h-.73c-7.44.09-14.28,2.66-19.72,6.92L12.76,371.95c-8.05,6.17-12.76,15.73-12.76,25.87v330.65c0,18.01,14.6,32.61,32.61,32.61s32.61-14.6,32.61-32.61v-314.56l181.21-139v454.26c0,18.01,14.6,32.61,32.61,32.61h246.43c18.01,0,32.61-14.6,32.61-32.61v-331.35c0-10.14-4.72-19.71-12.76-25.87ZM492.86,696.56h-181.21v-421.65l181.21,139v282.65Z"/>
      <path d="M823.32,492.92c0-29.97-19.39-49.36-48.37-49.36h-63.65v137.1h24.48v-39.18h33.68l25.66,39.18h28.99l-28.2-43.09c17.04-7.05,27.42-23.3,27.42-44.65ZM772.59,518.96h-36.82v-52.87h36.82c15.87,0,26.25,10.38,26.25,26.25s-10.38,26.63-26.25,26.63Z"/>
      <path d="M925.52,550.3h-25.66c-4.7,6.86-12.34,10.58-22.13,10.58-13.9,0-23.69-7.83-26.25-21.35h76.58c.2-2.55.39-5.09.39-7.83,0-30.17-20.17-50.35-50.53-50.35s-50.73,20.18-50.73,50.35,20.37,50.72,50.73,50.72c23.69,0,41.13-12.34,47.59-32.12ZM877.73,502.91c11.76,0,20.57,5.48,24.68,15.08h-49.16c4.11-9.6,12.92-15.08,24.48-15.08Z"/>
      <path d="M960.94,522.88c0-13.91,10.18-20.18,21.54-20.18s21.55,6.27,21.55,20.18v57.78h23.5v-58.36c0-17.04-12.73-41.33-45.05-41.33s-45.04,24.28-45.04,41.33v58.36h23.5v-57.78Z"/>
      <path d="M1087.62,582.03v-21.55c-18.4,0-25.66-7.25-25.66-25.07v-31.14h22.33v-21.55h-22.33v-39.17h-23.5v92.05c0,30.16,17.04,46.42,49.16,46.42Z"/>
      <path d="M1168.49,571.27v9.4h23.51v-48.58c0-30.35-20.38-50.73-50.73-50.73s-50.54,20.18-50.54,50.35,20.37,50.72,48.77,50.72c14.3,0,24.29-5.09,28.98-11.16ZM1141.47,560.88c-16.45,0-27.22-10.77-27.22-28.98s10.78-28.98,27.22-28.98,27.03,10.77,27.03,28.98-10.77,28.98-27.03,28.98Z"/>
      <path d="M1318.86,463.54c15.47,0,27.22,5.87,35.45,16.06l19.98-13.7c-12.53-15.67-31.14-24.88-55.43-24.88-42.69,0-69.14,28.39-69.14,71.09s26.45,71.1,69.14,71.1c24.29,0,42.89-9.21,55.43-24.88l-19.98-13.71c-8.22,10.19-19.98,16.07-35.45,16.07-28.2,0-44.65-18.8-44.65-48.58s16.45-48.56,44.65-48.56Z"/>
      <path d="M1378.36,531.71c0,30.35,20.37,50.72,50.73,50.72s50.53-20.37,50.53-50.72-20.17-50.35-50.53-50.35-50.73,20.18-50.73,50.35ZM1456.11,531.9c0,18.21-10.77,28.98-27.22,28.98s-27.03-10.77-27.03-28.98,10.77-28.98,27.03-28.98,27.22,10.77,27.22,28.98Z"/>
      <path d="M1488.6,580.67h23.5v-54.85c0-15.67,9.4-23.3,25.07-23.3v-21.54c-29.77,0-48.57,15.08-48.57,44.84v54.85Z"/>
      <path d="M1546.35,443.57v92.05c0,30.16,17.04,46.42,49.16,46.42v-21.55c-18.41,0-25.66-7.25-25.66-25.07v-31.14h22.33v-21.55h-22.33v-39.17h-23.5Z"/>
      <path d="M1699.88,580.67v-48.58c0-30.35-20.38-50.73-50.73-50.73s-50.54,20.18-50.54,50.35,20.37,50.72,48.77,50.72c14.3,0,24.29-5.09,28.98-11.16v9.4h23.51ZM1649.34,560.88c-16.45,0-27.22-10.77-27.22-28.98s10.78-28.98,27.22-28.98,27.03,10.77,27.03,28.98-10.77,28.98-27.03,28.98Z"/>
      <polygon points="937.43 278.61 770.67 278.61 770.67 185.01 907.97 185.01 907.97 130.37 770.67 130.37 770.67 54.84 937.43 54.84 937.43 .21 711.28 .21 711.28 332.77 937.43 333.24 937.43 278.61"/>
      <polygon points="1017.22 332.77 1063.78 262.46 1110.34 332.77 1175.91 332.77 1097.51 214 1175.91 95.22 1110.34 95.22 1063.78 165.54 1017.22 95.22 951.66 95.22 1030.05 214 951.66 332.77 1017.22 332.77"/>
      <path d="M1245.26,309.49c11.41,14.73,35.63,27.09,69.84,27.09,69.36,0,118.77-49.41,118.77-123.06s-49.41-122.1-121.62-122.1-123.99,45.61-123.99,122.1v214.27h57.01v-118.3ZM1310.82,143.68c39.91,0,66.04,26.13,66.04,70.32s-26.13,70.31-66.04,70.31-65.56-26.13-65.56-70.31,26.13-70.32,65.56-70.32Z"/>
      <path d="M1576.38,337.04c73.64,0,122.57-49.41,122.57-123.05s-48.93-122.1-122.57-122.1-123.05,48.94-123.05,122.1,49.41,123.05,123.05,123.05ZM1575.9,144.16c39.91,0,66.04,26.13,66.04,70.32s-26.13,70.31-66.04,70.31-65.56-26.13-65.56-70.31,26.13-70.32,65.56-70.32Z"/>
      <path d="M32.78,254.54c6.93,0,13.92-2.2,19.84-6.75l226.6-174.07,226.11,173.45c14.29,10.97,34.77,8.27,45.72-6.02,10.97-14.29,8.27-34.77-6.02-45.72L298.93,6.63c-8.2-6.29-18.93-8.19-28.88-5.35-4.55,1.31-8.7,3.59-12.22,6.61L12.88,196.07c-14.28,10.98-16.96,31.45-6,45.73,6.42,8.36,16.1,12.74,25.89,12.74Z"/>
      <path d="M756.19,733l-22-63.44h-22.92l31.53,89.29c4.4,12.28-5.5,27.5-17.78,27.5v20.17c30.8,0,36.12-23.84,43.63-45.29l32.45-91.67h-22.92l-22,63.44Z"/>
      <polygon points="927.28 632.89 899.04 724.38 870.62 632.89 846.97 632.89 887.49 761.23 910.41 761.23 950.93 632.89 927.28 632.89"/>
      <path d="M988.16,668.27c-28.24,0-47.3,18.89-47.3,47.12s19.07,47.49,45.65,47.49c13.38,0,22.73-4.77,27.14-10.45v8.8h22v-45.47c0-28.42-19.07-47.49-47.49-47.49ZM988.34,742.71c-15.4,0-25.48-10.08-25.48-27.14s10.08-27.13,25.48-27.13,25.3,10.08,25.3,27.13-10.08,27.14-25.3,27.14Z"/>
      <path d="M1091.21,742.71c-15.22,0-25.3-10.08-25.3-27.14s10.08-27.13,25.3-27.13c11,0,19.25,5.13,23.1,14.12h22.92c-4.77-20.9-22-34.29-45.84-34.29-28.42,0-47.48,18.89-47.48,47.12s19.07,47.49,47.48,47.49c24.02,0,41.07-13.57,46.02-34.84h-22.92c-3.85,9.35-12.1,14.67-23.29,14.67Z"/>
      <path d="M1189.31,668.27c-28.24,0-47.3,18.89-47.3,47.12s19.07,47.49,45.65,47.49c13.38,0,22.73-4.77,27.14-10.45v8.8h22v-45.47c0-28.42-19.07-47.49-47.49-47.49ZM1189.5,742.71c-15.4,0-25.48-10.08-25.48-27.14s10.08-27.13,25.48-27.13,25.3,10.08,25.3,27.13-10.08,27.14-25.3,27.14Z"/>
      <path d="M1292.37,742.71c-15.22,0-25.3-10.08-25.3-27.14s10.08-27.13,25.3-27.13c11,0,19.25,5.13,23.1,14.12h22.92c-4.77-20.9-22-34.29-45.84-34.29-28.42,0-47.48,18.89-47.48,47.12s19.07,47.49,47.48,47.49c24.02,0,41.07-13.57,46.02-34.84h-22.92c-3.85,9.35-12.1,14.67-23.29,14.67Z"/>
      <path d="M1357.84,630.87c-6.78,0-12.1,5.5-12.1,12.1,0,6.97,5.31,12.28,12.1,12.28s12.1-5.32,12.1-12.28c0-6.6-5.32-12.1-12.1-12.1Z"/>
      <rect x="1346.84" y="669.56" width="22" height="91.67"/>
      <path d="M1423.84,668.27c-28.42,0-47.48,18.89-47.48,47.12s19.07,47.49,47.48,47.49,47.31-19.07,47.31-47.49-18.88-47.12-47.31-47.12ZM1423.66,742.71c-15.22,0-25.3-10.08-25.3-27.14s10.08-27.13,25.3-27.13,25.49,10.08,25.49,27.13-10.08,27.14-25.49,27.14Z"/>
      <path d="M1521.76,667.91c-30.25,0-42.17,22.74-42.17,38.69v54.64h22v-54.09c0-13.02,9.53-18.89,20.17-18.89s20.17,5.87,20.17,18.89v54.09h22v-54.64c0-15.95-11.92-38.69-42.17-38.69Z"/>
      <path d="M1619.5,668.27c-28.24,0-47.3,18.89-47.3,47.12s19.07,47.49,45.65,47.49c13.38,0,22.73-4.77,27.14-10.45v8.8h22v-45.47c0-28.42-19.07-47.49-47.49-47.49ZM1619.68,742.71c-15.4,0-25.48-10.08-25.48-27.14s10.08-27.13,25.48-27.13,25.3,10.08,25.3,27.13-10.08,27.14-25.3,27.14Z"/>
      <rect x="1678" y="632.89" width="22" height="128.34"/>
    </g>
  </g>
</svg>