<?xml version="1.0" encoding="UTF-8"?>
<svg id="Capa_2" data-name="Capa 2" xmlns="http://www.w3.org/2000/svg" viewBox="0 0 733.69 1700">
  <defs>
    <style>
      .cls-1 {
        fill: #4ead80;
      }

      .cls-2 {
        fill: #2947ed;
      }
    </style>
  </defs>
  <g id="Capa_1-2" data-name="Capa 1">
    <g>
      <g>
        <g>
          <path class="cls-1" d="M.18,1437.17h47.22c21.5,0,35.89,14.39,35.89,36.62,0,15.84-7.7,27.9-20.34,33.13l20.92,31.97h-21.51l-19.04-29.07h-24.99v29.07H.18v-101.72ZM45.65,1493.11c11.77,0,19.47-7.69,19.47-19.76s-7.7-19.47-19.47-19.47h-27.31v39.23h27.31Z"/>
          <path class="cls-1" d="M140.07,1516.36h19.04c-4.8,14.68-17.73,23.83-35.31,23.83-22.52,0-37.63-15.11-37.63-37.63s15.11-37.35,37.63-37.35,37.49,14.97,37.49,37.35c0,2.03-.14,3.92-.29,5.81h-56.82c1.89,10.03,9.16,15.84,19.47,15.84,7.27,0,12.93-2.76,16.42-7.85ZM141.96,1492.39c-3.05-7.12-9.59-11.19-18.31-11.19s-15.11,4.07-18.16,11.19h36.47Z"/>
          <path class="cls-1" d="M234.79,1495.59v43.3h-17.44v-42.87c0-10.32-7.55-14.97-15.98-14.97s-15.98,4.65-15.98,14.97v42.87h-17.44v-43.3c0-12.65,9.44-30.66,33.42-30.66s33.42,18.01,33.42,30.66Z"/>
          <path class="cls-1" d="M279.37,1539.9c-23.83,0-36.47-12.06-36.47-34.44v-68.29h17.44v29.06h16.57v15.98h-16.57v23.1c0,13.22,5.38,18.6,19.04,18.6v15.98Z"/>
          <path class="cls-1" d="M356.81,1502.84v36.04h-17.44v-6.97c-3.48,4.5-10.89,8.28-21.5,8.28-21.07,0-36.18-15.11-36.18-37.63s15.11-37.35,37.49-37.35,37.63,15.12,37.63,37.63ZM319.32,1481.2c-12.2,0-20.2,7.99-20.2,21.5s8,21.5,20.2,21.5,20.05-7.99,20.05-21.5-7.99-21.5-20.05-21.5Z"/>
          <path class="cls-1" d="M450.93,1435.28c18.02,0,31.82,6.83,41.12,18.46l-14.82,10.17c-6.1-7.56-14.82-11.91-26.3-11.91-20.92,0-33.13,13.95-33.13,36.03s12.2,36.04,33.13,36.04c11.48,0,20.2-4.36,26.3-11.92l14.82,10.17c-9.3,11.62-23.1,18.46-41.12,18.46-31.67,0-51.29-21.07-51.29-52.75s19.62-52.74,51.29-52.74Z"/>
          <path class="cls-1" d="M532.7,1465.21c22.52,0,37.49,14.97,37.49,37.35s-14.96,37.63-37.49,37.63-37.63-15.11-37.63-37.63,15.11-37.35,37.63-37.35ZM532.56,1524.2c12.21,0,20.2-7.99,20.2-21.5s-7.99-21.5-20.2-21.5-20.05,7.99-20.05,21.5,7.99,21.5,20.05,21.5Z"/>
          <path class="cls-1" d="M612.89,1464.93v15.98c-11.62,0-18.6,5.66-18.6,17.29v40.69h-17.44v-40.69c0-22.08,13.95-33.27,36.04-33.27Z"/>
          <path class="cls-1" d="M656.17,1539.9c-23.83,0-36.47-12.06-36.47-34.44v-68.29h17.44v29.06h16.57v15.98h-16.57v23.1c0,13.22,5.38,18.6,19.04,18.6v15.98Z"/>
          <path class="cls-1" d="M733.6,1502.84v36.04h-17.44v-6.97c-3.48,4.5-10.89,8.28-21.5,8.28-21.07,0-36.18-15.11-36.18-37.63s15.11-37.35,37.49-37.35,37.63,15.12,37.63,37.63ZM696.11,1481.2c-12.2,0-20.2,7.99-20.2,21.5s8,21.5,20.2,21.5,20.05-7.99,20.05-21.5-7.99-21.5-20.05-21.5Z"/>
        </g>
        <g>
          <path class="cls-1" d="M.16,1598.39h17l16.32,47.06,16.33-47.06h17l-24.08,68.01c-5.58,15.92-9.52,33.6-32.37,33.6v-14.96c9.11,0,16.46-11.29,13.19-20.4L.16,1598.39Z"/>
          <path class="cls-1" d="M130.89,1666.4l-30.06-95.22h17.55l21.09,67.88,20.95-67.88h17.55l-30.06,95.22h-17Z"/>
          <path class="cls-1" d="M240.81,1632.67v33.73h-16.32v-6.53c-3.27,4.22-10.2,7.75-20.13,7.75-19.72,0-33.87-14.15-33.87-35.23s14.15-34.96,35.09-34.96,35.23,14.15,35.23,35.23ZM205.71,1612.4c-11.42,0-18.91,7.48-18.91,20.13s7.48,20.13,18.91,20.13,18.77-7.48,18.77-20.13-7.48-20.13-18.77-20.13Z"/>
          <path class="cls-1" d="M282.03,1652.66c8.3,0,14.42-3.95,17.28-10.88h17c-3.67,15.78-16.32,25.84-34.14,25.84-21.08,0-35.23-14.15-35.23-35.23s14.15-34.96,35.23-34.96c17.68,0,30.47,9.93,34.01,25.44h-17c-2.86-6.67-8.98-10.47-17.14-10.47-11.29,0-18.77,7.48-18.77,20.13s7.48,20.13,18.77,20.13Z"/>
          <path class="cls-1" d="M390.05,1632.67v33.73h-16.32v-6.53c-3.27,4.22-10.2,7.75-20.13,7.75-19.72,0-33.87-14.15-33.87-35.23s14.15-34.96,35.09-34.96,35.23,14.15,35.23,35.23ZM354.95,1612.4c-11.42,0-18.91,7.48-18.91,20.13s7.48,20.13,18.91,20.13,18.77-7.48,18.77-20.13-7.48-20.13-18.77-20.13Z"/>
          <path class="cls-1" d="M431.27,1652.66c8.3,0,14.42-3.95,17.28-10.88h17c-3.67,15.78-16.32,25.84-34.14,25.84-21.08,0-35.23-14.15-35.23-35.23s14.15-34.96,35.23-34.96c17.68,0,30.47,9.93,34.01,25.44h-17c-2.86-6.67-8.98-10.47-17.14-10.47-11.29,0-18.77,7.48-18.77,20.13s7.48,20.13,18.77,20.13Z"/>
          <path class="cls-1" d="M479.84,1569.69c5.03,0,8.98,4.08,8.98,8.98,0,5.17-3.95,9.11-8.98,9.11s-8.98-3.95-8.98-9.11c0-4.9,3.94-8.98,8.98-8.98ZM471.68,1598.39h16.32v68.01h-16.32v-68.01Z"/>
          <path class="cls-1" d="M528.81,1597.44c21.09,0,35.1,14.01,35.1,34.96s-14.01,35.23-35.1,35.23-35.23-14.15-35.23-35.23,14.15-34.96,35.23-34.96ZM528.68,1652.66c11.43,0,18.91-7.48,18.91-20.13s-7.48-20.13-18.91-20.13-18.77,7.48-18.77,20.13,7.48,20.13,18.77,20.13Z"/>
          <path class="cls-1" d="M632.75,1625.87v40.54h-16.32v-40.13c0-9.66-7.07-14.01-14.96-14.01s-14.96,4.35-14.96,14.01v40.13h-16.32v-40.54c0-11.83,8.84-28.7,31.29-28.7s31.29,16.87,31.29,28.7Z"/>
          <path class="cls-1" d="M709.2,1632.67v33.73h-16.32v-6.53c-3.27,4.22-10.2,7.75-20.13,7.75-19.72,0-33.87-14.15-33.87-35.23s14.15-34.96,35.09-34.96,35.23,14.15,35.23,35.23ZM674.1,1612.4c-11.42,0-18.91,7.48-18.91,20.13s7.48,20.13,18.91,20.13,18.77-7.48,18.77-20.13-7.48-20.13-18.77-20.13Z"/>
          <path class="cls-1" d="M717.37,1571.18h16.32v95.22h-16.32v-95.22Z"/>
        </g>
      </g>
      <path class="cls-2" d="M689.75,999.93h-323.47c-23.65,0-42.81-19.16-42.81-42.81V360.85l-237.85,182.46v412.9c0,23.65-19.16,42.81-42.81,42.81S0,979.85,0,956.2v-434.01c0-13.31,6.19-25.87,16.75-33.96l323.16-247.9c7.14-5.59,16.12-8.97,25.89-9.08h.96c9.77.11,18.75,3.49,25.89,9.08l323.16,247.9c10.56,8.1,16.75,20.65,16.75,33.96v434.93c0,23.65-19.16,42.81-42.81,42.81ZM409.09,914.31h237.85v-371.01l-237.85-182.46v553.47Z"/>
      <g>
        <path class="cls-2" d="M.64,1097.75h167.51v40.47H44.63v55.95h101.7v40.47H44.63v69.33h123.52v40.47l-167.51-.35v-246.34Z"/>
        <path class="cls-2" d="M178.7,1168.13h48.56l34.49,52.09,34.49-52.09h48.57l-58.07,87.98,58.07,87.98h-48.57l-34.49-52.09-34.49,52.09h-48.56l58.07-87.98-58.07-87.98Z"/>
        <path class="cls-2" d="M353.94,1414.47v-158.71c0-56.66,40.47-90.44,91.85-90.44s90.09,36.25,90.09,90.44-36.6,91.15-87.98,91.15c-25.34,0-43.28-9.16-51.73-20.07v87.63h-42.23ZM444.74,1204.02c-29.21,0-48.56,19.35-48.56,52.09s19.35,52.08,48.56,52.08,48.92-19.35,48.92-52.08-19.35-52.09-48.92-52.09Z"/>
        <path class="cls-2" d="M641.44,1165.66c54.55,0,90.79,36.25,90.79,90.44s-36.24,91.14-90.79,91.14-91.14-36.6-91.14-91.14,36.6-90.44,91.14-90.44ZM641.09,1308.54c29.56,0,48.92-19.35,48.92-52.08s-19.35-52.09-48.92-52.09-48.56,19.35-48.56,52.09,19.35,52.08,48.56,52.08Z"/>
      </g>
      <path class="cls-1" d="M43.02,334.12c-12.85,0-25.55-5.75-33.98-16.73-14.4-18.75-10.88-45.62,7.87-60.03L338.43,10.37c4.62-3.97,10.07-6.96,16.04-8.68,13.06-3.73,27.14-1.23,37.91,7.02l323.03,247.81c18.76,14.39,22.3,41.26,7.9,60.02-14.37,18.76-41.26,22.3-60.02,7.9L366.5,96.77,69.07,325.26c-7.77,5.96-16.95,8.86-26.05,8.86Z"/>
    </g>
  </g>
</svg>