<?xml version="1.0" encoding="UTF-8" standalone="no"?>
<!DOCTYPE svg PUBLIC "-//W3C//DTD SVG 1.1//EN" "http://www.w3.org/Graphics/SVG/1.1/DTD/svg11.dtd">
<svg width="100%" height="100%" viewBox="0 0 440 456" version="1.1" xmlns="http://www.w3.org/2000/svg" xmlns:xlink="http://www.w3.org/1999/xlink" xml:space="preserve" xmlns:serif="http://www.serif.com/" style="fill-rule:evenodd;clip-rule:evenodd;stroke-linejoin:round;stroke-miterlimit:2;">
    <g transform="matrix(1,0,0,1,-18757,-2002)">
        <g transform="matrix(2.666667,0,0,2.666667,17282,44.052114)">
            <g transform="matrix(1,0,0,1,370.020045,43.938409)">
                <g transform="matrix(1.774976,0,0,1.774976,183.109226,639.400884)">
                    <path d="M52.644,114.172L82.06,114.172L82.06,67.843L46.446,39.81L10.86,67.843L10.86,119.403C10.86,122.353 8.432,124.749 5.43,124.749C2.429,124.749 0,122.358 0,119.403L0,65.207C0,63.545 0.786,61.977 2.124,60.964L43.111,30.01C44.034,29.301 45.195,28.877 46.458,28.877C47.72,28.877 48.881,29.301 49.804,30.01L90.791,60.964C92.13,61.977 92.915,63.545 92.915,65.207L92.915,119.518C92.915,122.468 90.487,124.864 87.485,124.864L46.905,124.864C46.894,124.864 46.883,124.864 46.871,124.864C45.567,124.864 44.316,124.346 43.393,123.423C42.47,122.501 41.952,121.25 41.952,119.945L41.952,84.763C41.952,83.398 42.494,82.089 43.46,81.123C44.425,80.158 45.734,79.616 47.099,79.616L47.497,79.616C48.862,79.616 50.172,80.158 51.137,81.123C52.102,82.089 52.644,83.398 52.644,84.763L52.644,114.172Z"/>
                </g>
                <g transform="matrix(0.516291,0,0,0.516291,1782.344714,-132.03386)">
                    <path d="M-3042.407,1771.431C-3042.779,1765.209 -3040.119,1758.92 -3034.721,1754.829L-2952.188,1692.417C-2950.089,1690.653 -2947.61,1689.316 -2944.9,1688.546C-2938.9,1686.848 -2932.406,1687.989 -2927.475,1691.725L-2840.951,1757.07C-2832.29,1763.615 -2830.658,1775.835 -2837.306,1784.363C-2843.915,1792.84 -2856.251,1794.46 -2864.879,1787.953L-2939.35,1731.701L-3005.683,1781.863L-3005.683,1904.75C-3005.683,1909.624 -3007.619,1914.299 -3011.065,1917.745C-3014.512,1921.192 -3019.186,1923.128 -3024.061,1923.128L-3024.063,1923.128C-3028.937,1923.128 -3033.612,1921.192 -3037.058,1917.745C-3040.505,1914.299 -3042.441,1909.624 -3042.441,1904.75L-3042.441,1772.429C-3042.441,1772.093 -3042.429,1771.76 -3042.407,1771.431Z"/>
                </g>
            </g>
        </g>
    </g>
</svg>
