<?xml version="1.0" encoding="UTF-8" standalone="no"?>
<!DOCTYPE svg PUBLIC "-//W3C//DTD SVG 1.1//EN" "http://www.w3.org/Graphics/SVG/1.1/DTD/svg11.dtd">
<svg width="100%" height="100%" viewBox="0 0 738 317" version="1.1" xmlns="http://www.w3.org/2000/svg" xmlns:xlink="http://www.w3.org/1999/xlink" xml:space="preserve" xmlns:serif="http://www.serif.com/" style="fill-rule:evenodd;clip-rule:evenodd;stroke-linejoin:round;stroke-miterlimit:2;">
    <g transform="matrix(1,0,0,1,-20502,-2022)">
        <g transform="matrix(2.666667,0,0,2.666667,17282,44.052114)">
            <g transform="matrix(1,0,0,1,-100.188211,261.187497)">
                <g transform="matrix(0,-0.767809,0.767809,0,1288.573211,555.01601)">
                    <path d="M56.323,110.493L78.381,110.493L78.381,69.629L46.447,44.493L14.539,69.628L14.539,119.403C14.539,124.367 10.481,128.428 5.43,128.428C0.379,128.428 -3.679,124.376 -3.679,119.403L-3.679,65.207C-3.679,62.397 -2.359,59.743 -0.096,58.031L-0.093,58.028L40.887,27.079C42.426,25.903 44.357,25.197 46.458,25.197C48.558,25.197 50.49,25.903 52.028,27.079L93.008,58.028L93.012,58.031C95.274,59.743 96.595,62.397 96.595,65.207L96.595,119.518C96.595,124.482 92.536,128.543 87.485,128.543L46.905,128.543L46.871,128.543C44.591,128.543 42.404,127.637 40.791,126.025C39.179,124.412 38.273,122.225 38.273,119.945L38.273,84.763C38.273,82.422 39.203,80.177 40.858,78.522C42.513,76.867 44.758,75.937 47.099,75.937L47.497,75.937C49.838,75.937 52.083,76.867 53.738,78.522C55.393,80.177 56.323,82.422 56.323,84.763L56.323,110.493Z"/>
                </g>
                <g transform="matrix(0.496511,0,0,0.496511,1921.330501,-473.629552)">
                    <g transform="matrix(1,0,0,1,-2.179005,0.336)">
                        <g transform="matrix(2.666667,0,0,2.666667,-1490.373501,1826.184495)">
                            <path d="M118.413,102.113L129.015,102.113C133.842,102.113 137.066,105.292 137.066,110.204C137.066,113.704 135.337,116.369 132.503,117.522L137.198,124.586L132.371,124.586L128.097,118.166L122.489,118.166L122.489,124.586L118.413,124.586L118.413,102.113ZM128.624,114.472C131.266,114.472 132.995,112.77 132.995,110.109C132.995,107.449 131.266,105.806 128.624,105.806L122.495,105.806L122.495,114.472L128.624,114.472Z" style="fill-rule:nonzero;"/>
                        </g>
                        <g transform="matrix(2.666667,0,0,2.666667,-1490.373501,1826.184495)">
                            <path d="M149.813,119.609L154.087,119.609C153.012,122.854 150.107,124.875 146.162,124.875C141.107,124.875 137.715,121.536 137.715,116.564C137.715,111.592 141.107,108.312 146.162,108.312C151.217,108.312 154.574,111.622 154.574,116.564C154.574,117.013 154.543,117.427 154.508,117.847L141.756,117.847C142.182,120.063 143.81,121.346 146.127,121.346C147.759,121.346 149.027,120.737 149.813,119.614L149.813,119.609ZM150.234,114.313C149.549,112.74 148.084,111.842 146.127,111.842C144.17,111.842 142.735,112.74 142.05,114.313L150.234,114.313Z" style="fill-rule:nonzero;"/>
                        </g>
                        <g transform="matrix(2.666667,0,0,2.666667,-1490.373501,1826.184495)">
                            <path d="M171.066,115.016L171.066,124.581L167.152,124.581L167.152,115.111C167.152,112.83 165.459,111.802 163.568,111.802C161.676,111.802 159.983,112.83 159.983,115.111L159.983,124.581L156.069,124.581L156.069,115.016C156.069,112.221 158.188,108.242 163.568,108.242C168.947,108.242 171.066,112.221 171.066,115.016Z" style="fill-rule:nonzero;"/>
                        </g>
                        <g transform="matrix(2.666667,0,0,2.666667,-1490.373501,1826.184495)">
                            <path d="M181.07,124.81C175.721,124.81 172.887,122.145 172.887,117.203L172.887,102.113L176.801,102.113L176.801,108.532L180.517,108.532L180.517,112.061L176.801,112.061L176.801,117.163C176.801,120.083 178.008,121.271 181.075,121.271L181.075,124.8L181.07,124.81Z" style="fill-rule:nonzero;"/>
                        </g>
                        <g transform="matrix(2.666667,0,0,2.666667,-1490.373501,1826.184495)">
                            <path d="M198.451,116.624L198.451,124.586L194.536,124.586L194.536,123.043C193.756,124.037 192.093,124.87 189.71,124.87C184.979,124.87 181.592,121.531 181.592,116.559C181.592,111.587 184.984,108.307 190.004,108.307C195.023,108.307 198.451,111.647 198.451,116.624ZM190.034,111.842C187.296,111.842 185.501,113.609 185.501,116.594C185.501,119.579 187.296,121.346 190.034,121.346C192.772,121.346 194.531,119.579 194.531,116.594C194.531,113.609 192.736,111.842 190.034,111.842Z" style="fill-rule:nonzero;"/>
                        </g>
                    </g>
                    <g transform="matrix(2.666667,0,0,2.666667,-1445.418667,1827.304495)">
                        <path d="M219.567,101.693C223.613,101.693 226.706,103.201 228.795,105.772L225.469,108.018C224.1,106.346 222.143,105.387 219.567,105.387C214.872,105.387 212.135,108.467 212.135,113.349C212.135,118.231 214.872,121.311 219.567,121.311C222.143,121.311 224.1,120.348 225.469,118.675L228.795,120.922C226.706,123.487 223.613,125 219.567,125C212.459,125 208.058,120.343 208.058,113.344C208.058,106.346 212.459,101.693 219.567,101.693Z" style="fill-rule:nonzero;"/>
                    </g>
                    <g transform="matrix(2.666667,0,0,2.666667,-1445.418667,1827.304495)">
                        <path d="M237.916,108.307C242.971,108.307 246.327,111.617 246.327,116.559C246.327,121.501 242.971,124.87 237.916,124.87C232.861,124.87 229.469,121.531 229.469,116.559C229.469,111.587 232.861,108.307 237.916,108.307ZM237.886,121.341C240.624,121.341 242.418,119.574 242.418,116.589C242.418,113.604 240.624,111.837 237.886,111.837C235.148,111.837 233.388,113.604 233.388,116.589C233.388,119.574 235.183,121.341 237.886,121.341Z" style="fill-rule:nonzero;"/>
                    </g>
                    <g transform="matrix(2.666667,0,0,2.666667,-1445.418667,1827.304495)">
                        <path d="M255.91,108.242L255.91,111.772C253.304,111.772 251.737,113.025 251.737,115.59L251.737,124.581L247.823,124.581L247.823,115.59C247.823,110.713 250.952,108.242 255.91,108.242Z" style="fill-rule:nonzero;"/>
                    </g>
                    <g transform="matrix(2.666667,0,0,2.666667,-1445.418667,1827.304495)">
                        <path d="M265.625,124.81C260.276,124.81 257.441,122.145 257.441,117.203L257.441,102.113L261.356,102.113L261.356,108.532L265.072,108.532L265.072,112.061L261.356,112.061L261.356,117.163C261.356,120.083 262.562,121.271 265.63,121.271L265.63,124.8L265.625,124.81Z" style="fill-rule:nonzero;"/>
                    </g>
                    <g transform="matrix(2.666667,0,0,2.666667,-1445.418667,1827.304495)">
                        <path d="M283,116.624L283,124.586L279.086,124.586L279.086,123.043C278.305,124.037 276.642,124.87 274.259,124.87C269.528,124.87 266.142,121.531 266.142,116.559C266.142,111.587 269.534,108.307 274.553,108.307C279.572,108.307 283,111.647 283,116.624ZM274.588,111.842C271.851,111.842 270.056,113.609 270.056,116.594C270.056,119.579 271.851,121.346 274.588,121.346C277.326,121.346 279.086,119.579 279.086,116.594C279.086,113.609 277.291,111.842 274.588,111.842Z" style="fill-rule:nonzero;"/>
                    </g>
                </g>
                <g transform="matrix(1.533769,0,0,1.533769,1150.25839,432.844348)">
                    <path d="M158.437,42.56L169.353,42.56L177.105,54.086L184.857,42.56L195.773,42.56L182.723,62.028L195.773,81.496L184.857,81.496L177.105,69.97L169.353,81.496L158.437,81.496L171.487,62.028L158.437,42.56Z" style="fill-rule:nonzero;"/>
                </g>
                <g transform="matrix(1.533769,0,0,1.533769,1150.25839,432.844348)">
                    <path d="M197.821,97.071L197.821,61.948C197.821,49.409 206.917,41.936 218.462,41.936C230.007,41.936 238.712,49.958 238.712,61.948C238.712,73.939 230.488,82.12 218.938,82.12C213.245,82.12 209.209,80.094 207.313,77.678L207.313,97.066L197.821,97.066L197.821,97.071ZM218.229,50.502C211.663,50.502 207.313,54.785 207.313,62.028C207.313,69.271 211.663,73.554 218.229,73.554C224.794,73.554 229.221,69.271 229.221,62.028C229.221,54.785 224.87,50.502 218.229,50.502Z" style="fill-rule:nonzero;"/>
                </g>
                <g transform="matrix(1.533769,0,0,1.533769,1150.25839,432.844348)">
                    <path d="M262.44,42.016C274.7,42.016 282.848,50.038 282.848,62.028C282.848,74.019 274.7,82.195 262.44,82.195C250.181,82.195 241.957,74.093 241.957,62.028C241.957,49.963 250.181,42.016 262.44,42.016ZM262.359,73.634C269.001,73.634 273.351,69.351 273.351,62.108C273.351,54.865 269.001,50.582 262.359,50.582C255.717,50.582 251.443,54.865 251.443,62.108C251.443,69.351 255.793,73.634 262.359,73.634Z" style="fill-rule:nonzero;"/>
                </g>
            </g>
        </g>
    </g>
</svg>
